<svg width="208" height="39" viewBox="0 0 208 39" fill="none" xmlns="http://www.w3.org/2000/svg">
<g clip-path="url(#clip0_71_402)">
<path d="M3.25092 9.58596C3.70153 9.33863 4.30252 9.15903 5.05336 9.04819C5.80524 8.93633 6.5509 8.89323 7.2893 8.91888C8.0277 8.94351 8.68416 9.01843 9.25974 9.14261C9.83636 9.26576 10.1874 9.42689 10.3134 9.62496C10.5882 10.0714 10.7386 10.6102 10.7635 11.2424C10.7884 11.8735 10.7759 12.5365 10.7262 13.2313C10.6764 13.925 10.6256 14.6188 10.5748 15.3126C10.525 16.0063 10.5628 16.6447 10.6888 17.2276C10.8143 17.8095 11.071 18.2985 11.4583 18.6952C11.8467 19.0923 12.442 19.3397 13.2442 19.4382C13.6435 19.4874 13.9624 19.2955 14.2004 18.8614C14.4394 18.4278 14.6152 17.87 14.7272 17.1886C14.8402 16.5071 14.916 15.7518 14.9533 14.9226C14.9906 14.0923 15.0217 13.3052 15.0466 12.5622C15.0715 11.8181 15.1151 11.1736 15.1773 10.6287C15.2406 10.0827 15.3474 9.73528 15.4967 9.58596C15.7218 9.36326 16.1729 9.19598 16.8491 9.08514C17.5252 8.97328 18.2512 8.91067 19.0269 8.89836C19.8037 8.88604 20.5431 8.90554 21.2442 8.95583C21.9463 9.00509 22.4477 9.0913 22.748 9.21445C22.8983 9.26525 23.0114 9.60649 23.086 10.2387C23.1607 10.8698 23.2167 11.6996 23.254 12.7284C23.2924 13.7578 23.3121 14.9349 23.3121 16.2608V20.368C23.2608 23.9369 22.9911 26.8304 22.5032 29.0482C22.0147 31.2665 21.3075 33.0076 20.3813 34.2719C19.4547 35.5363 18.3217 36.404 16.9818 36.8746C15.6419 37.3456 14.1076 37.6053 12.3793 37.6545C10.9009 37.7038 9.4796 37.5617 8.11481 37.2276C6.75002 36.8925 5.53508 36.384 4.47052 35.7026C3.407 35.0211 2.55608 34.1606 1.91724 33.1205C1.2784 32.0793 0.958984 30.8642 0.958984 29.4751C0.958984 29.1293 1.10262 28.8322 1.39041 28.5843C1.67923 28.337 2.04895 28.1323 2.50008 27.9706C2.95069 27.8095 3.44486 27.6976 3.9831 27.6361C4.52082 27.5745 5.03366 27.5498 5.52212 27.5622C6.01162 27.5745 6.43734 27.6237 6.7998 27.7099C7.16329 27.7962 7.40804 27.9019 7.53405 28.026C7.68339 28.2246 7.7705 28.454 7.79539 28.7136C7.82132 28.9738 7.86591 29.2278 7.92814 29.4751C7.99036 29.723 8.12777 29.94 8.34089 30.1258C8.55349 30.3121 8.92269 30.4296 9.44849 30.4788C10.2501 30.4788 10.9263 30.448 11.477 30.3865C12.0287 30.3249 12.3295 30.1951 12.3793 29.9965C12.4042 29.9226 12.4477 29.7312 12.5099 29.4218C12.5732 29.1113 12.6302 28.7516 12.68 28.3421C12.7298 27.9332 12.7734 27.5057 12.8107 27.0593C12.8491 26.6134 12.8553 26.2049 12.8294 25.8339C12.8045 25.4619 12.7485 25.1643 12.6614 24.9411C12.5742 24.7184 12.4301 24.6188 12.2299 24.6434C10.2761 25.0144 8.61675 25.0514 7.25196 24.7543C5.88717 24.4577 4.76609 23.9374 3.88976 23.1943C3.01291 22.4503 2.35541 21.5518 1.91724 20.4993C1.47856 19.4459 1.20892 18.3483 1.10832 17.2071C1.03365 16.464 1.00254 15.721 1.01499 14.978C1.02743 14.234 1.10884 13.5269 1.25974 12.8577C1.41011 12.1886 1.64812 11.5759 1.97324 11.0186C2.29941 10.4603 2.72513 9.98313 3.25092 9.58596Z" fill="white"/>
<path d="M39.1388 9.06679C40.9916 9.16531 42.5633 9.37005 43.8534 9.6805C45.1435 9.98992 46.2205 10.4358 47.0849 11.0188C47.9488 11.6007 48.625 12.3252 49.1134 13.1924C49.6014 14.0601 49.9706 15.1013 50.221 16.3164C50.471 17.5305 50.6276 18.9308 50.6898 20.5179C50.7531 22.1041 50.7852 23.8877 50.7852 25.8689C50.7852 28.373 50.6032 30.3999 50.2397 31.9486C49.8772 33.4977 49.2576 34.7185 48.3813 35.6103C47.5044 36.5027 46.333 37.1164 44.8676 37.4515C43.4033 37.785 41.5687 37.9646 39.3649 37.9892C37.1855 38.0385 35.2944 37.9081 33.6921 37.5992C32.0893 37.2888 30.7494 36.6812 29.6724 35.7766C28.5949 34.8724 27.7683 33.6209 27.1917 32.0225C26.6161 30.4246 26.2532 28.3607 26.1028 25.832C25.9535 23.0077 26.0411 20.5236 26.3662 18.3792C26.6908 16.2353 27.354 14.4506 28.3553 13.0262C29.3577 11.6007 30.7354 10.5528 32.4891 9.8837C34.2423 9.21457 36.459 8.94261 39.1388 9.06679ZM36.3595 28.9929C36.3595 29.5881 36.6281 30.0223 37.1663 30.2942C37.7056 30.5667 38.2998 30.6842 38.9501 30.6473C39.6014 30.6103 40.2018 30.4251 40.7525 30.091C41.3043 29.7559 41.6055 29.2905 41.6569 28.6953C41.7315 27.8773 41.7875 27.1087 41.8249 26.3903C41.8622 25.6719 41.8746 24.9535 41.8622 24.2351C41.8498 23.5157 41.8186 22.747 41.7689 21.9301C41.7191 21.1122 41.6309 20.1824 41.5054 19.1407C41.4308 18.5208 41.1176 18.0749 40.5659 17.8024C40.0152 17.5305 39.4147 17.4063 38.7634 17.4309C38.1121 17.4555 37.5169 17.6172 36.9776 17.9153C36.4393 18.2124 36.1458 18.6332 36.0961 19.1776C36.0463 20.0207 36.0276 20.969 36.0401 22.0225C36.0525 23.0764 36.0836 24.0863 36.1334 25.052C36.1832 26.0183 36.233 26.8675 36.2827 27.5992C36.3336 28.3299 36.3595 28.7948 36.3595 28.9929Z" fill="white"/>
<path d="M74.0496 18.4344C73.0483 18.7069 72.0906 18.7874 71.1769 18.6766C70.2627 18.5647 69.3983 18.4031 68.5842 18.1922C67.7696 17.9818 67.0245 17.8084 66.3483 17.6729C65.6721 17.5364 65.0836 17.5733 64.5832 17.7837C64.0823 17.9946 63.6815 18.4724 63.3802 19.2164C63.0799 19.9594 62.8928 21.1119 62.8181 22.6729C62.7683 23.5652 62.7559 24.4453 62.7808 25.3125C62.8056 26.1802 62.8928 26.9607 63.0421 27.6544C63.1925 28.3482 63.4118 28.9244 63.6996 29.3827C63.9884 29.8414 64.3706 30.0949 64.8466 30.1442C65.3221 30.2196 65.6789 30.1211 65.9169 29.8486C66.1544 29.5751 66.3296 29.2216 66.4416 28.7874C66.5547 28.3538 66.6117 27.871 66.6117 27.3383V25.8318C66.5868 25.138 66.7683 24.6059 67.1572 24.2349C67.5456 23.8629 68.0335 23.596 68.6216 23.4344C69.2106 23.2733 69.8557 23.1994 70.5567 23.2127C71.2578 23.225 71.9091 23.2681 72.5106 23.342C73.1121 23.4159 73.6187 23.5032 74.031 23.6027C74.4442 23.7012 74.676 23.7628 74.7258 23.7874C74.9011 23.8875 75.0328 24.2103 75.1199 24.7562C75.208 25.3012 75.2589 25.9765 75.2713 26.7821C75.2837 27.5867 75.2651 28.4667 75.2153 29.4217C75.1655 30.3756 75.0898 31.311 74.9892 32.2275C74.8897 33.1445 74.7766 33.9937 74.6511 34.7747C74.5267 35.5547 74.3887 36.1679 74.2384 36.6138C74.1388 36.9109 73.7883 37.1649 73.1868 37.3753C72.5853 37.5862 71.8334 37.7468 70.9322 37.8576C70.0304 37.9695 69.0286 38.0444 67.9267 38.0814C66.8243 38.1183 65.7224 38.1245 64.6205 38.0998C63.5181 38.0752 62.4598 38.0259 61.445 37.9521C60.4313 37.8782 59.5741 37.7909 58.873 37.6914C57.7955 37.5426 56.9254 37.1023 56.2617 36.3716C55.598 35.6409 55.0779 34.7306 54.7019 33.6397C54.327 32.5492 54.0517 31.3039 53.8764 29.904C53.7006 28.5032 53.5757 27.0592 53.501 25.5731C53.4263 24.5813 53.4014 23.5093 53.4263 22.3568C53.4512 21.2048 53.5197 20.0467 53.6317 18.8818C53.7447 17.716 53.9143 16.5881 54.1398 15.4972C54.3649 14.4068 54.634 13.4216 54.9467 12.5415C55.2604 11.662 55.6363 10.919 56.075 10.3125C56.5132 9.70491 57.0198 9.31441 57.5954 9.14046C58.172 8.96702 58.942 8.85516 59.906 8.8059C60.871 8.75663 61.9293 8.75048 63.0815 8.78742C64.2332 8.82437 65.416 8.9116 66.6304 9.0481C67.8458 9.18356 68.9788 9.33853 70.0299 9.51197C71.082 9.68593 71.99 9.87835 72.7533 10.0887C73.5176 10.2996 74.0377 10.5167 74.313 10.7394C74.7139 11.0858 74.9705 11.6497 75.0826 12.4307C75.1956 13.2122 75.2143 14.0183 75.1386 14.8486C75.0639 15.6778 74.9197 16.4393 74.7071 17.1331C74.494 17.8268 74.2747 18.261 74.0496 18.4344Z" fill="white"/>
<path d="M78.4191 13.3419C78.5197 12.1021 78.683 11.1734 78.9086 10.5545C79.1336 9.93465 79.4338 9.50105 79.8087 9.2532C80.1847 9.00433 80.6353 8.87964 81.1611 8.87964H83.0029C84.1546 8.87964 85.0688 8.89298 85.745 8.91864C86.4212 8.94327 86.9402 9.10439 87.3027 9.40099C87.6662 9.69809 87.9109 10.1871 88.0369 10.8686C88.1624 11.55 88.2506 12.5475 88.3003 13.8612C88.3252 15.0763 88.3501 16.4402 88.375 17.9519C88.3999 19.4626 88.4186 21.0117 88.431 22.5989C88.4435 24.185 88.4497 25.7588 88.4497 27.3197V31.6321C88.4497 33.1936 88.4186 34.3836 88.3563 35.2015C88.2941 36.0184 88.0934 36.6131 87.7548 36.9852C87.4173 37.3577 86.8972 37.5742 86.1951 37.6358C85.494 37.6974 84.5052 37.7528 83.229 37.8021C82.1515 37.8524 81.2876 37.8093 80.6363 37.6728C79.9851 37.5363 79.4774 37.2638 79.1139 36.8559C78.7514 36.4469 78.4948 35.8829 78.3444 35.1646C78.1935 34.4451 78.0934 33.5277 78.0436 32.4121C77.969 31.0492 77.9316 29.5319 77.9316 27.8595C77.9316 26.1862 77.9503 24.4821 77.9876 22.7466C78.025 21.0117 78.081 19.3266 78.1556 17.6912C78.2314 16.0548 78.3195 14.6052 78.4191 13.3419Z" fill="white"/>
<path d="M114.459 32.7465C114.383 32.9697 114.357 33.3104 114.382 33.7686C114.408 34.2274 114.421 34.6985 114.421 35.1828C114.421 35.6662 114.371 36.1121 114.27 36.5211C114.17 36.9291 113.97 37.1831 113.668 37.2826C113.494 37.3319 113.35 37.3822 113.237 37.4324C113.125 37.4817 112.956 37.5186 112.731 37.5433C112.505 37.5679 112.192 37.5864 111.791 37.5987C111.39 37.611 110.839 37.6049 110.138 37.5802C109.111 37.5556 108.214 37.5002 107.45 37.414C106.687 37.3267 106.231 37.1836 106.081 36.985C106.005 36.8865 105.93 36.5211 105.855 35.8889C105.78 35.2567 105.717 34.427 105.666 33.3992C105.617 32.3703 105.573 31.205 105.536 29.9037C105.498 28.6024 105.473 27.2395 105.461 25.815C105.449 24.3895 105.442 22.9517 105.442 21.5026C105.442 20.0525 105.455 18.6763 105.48 17.375C105.505 16.0736 105.536 14.878 105.573 13.7871C105.61 12.6967 105.654 11.8167 105.706 11.1475C105.756 10.6031 106.1 10.1638 106.739 9.82979C107.378 9.49471 108.185 9.24636 109.161 9.08472C110.137 8.92359 111.214 8.83636 112.391 8.82404C113.569 8.81173 114.702 8.83739 115.792 8.89999C116.882 8.96157 117.871 9.05496 118.761 9.17914C119.649 9.30229 120.294 9.41313 120.694 9.51165C121.746 9.81029 122.623 10.2567 123.324 10.852C124.025 11.4462 124.588 12.1584 125.014 12.9887C125.44 13.8179 125.741 14.7533 125.916 15.7945C126.092 16.8362 126.167 17.9512 126.142 19.1401C126.118 20.3306 126.111 21.3969 126.124 22.338C126.136 23.2796 126.11 24.1289 126.047 24.8852C125.985 25.6406 125.884 26.3097 125.746 26.8926C125.609 27.4745 125.378 28.0005 125.051 28.471C124.677 29.017 124.17 29.4639 123.531 29.8113C122.892 30.1577 122.196 30.4425 121.444 30.6652C120.694 30.8884 119.929 31.0685 119.153 31.205C118.377 31.3405 117.663 31.477 117.012 31.6135C116.362 31.7489 115.805 31.9039 115.34 32.0773C114.877 32.2513 114.583 32.4745 114.459 32.7465ZM113.895 23.9C113.895 24.3464 114.126 24.6748 114.589 24.8852C115.052 25.0946 115.572 25.1869 116.147 25.1623C116.724 25.1377 117.262 25.014 117.763 24.7908C118.265 24.5681 118.541 24.2335 118.59 23.7871C118.665 23.1934 118.727 22.6367 118.777 22.1163C118.828 21.595 118.86 21.0685 118.873 20.5359C118.885 20.0022 118.873 19.4388 118.835 18.8446C118.798 18.2493 118.741 17.5674 118.665 16.7982C118.615 16.3523 118.352 16.0177 117.877 15.7945C117.401 15.5718 116.881 15.4661 116.317 15.4784C115.754 15.4907 115.235 15.6026 114.759 15.813C114.283 16.0239 114.02 16.3276 113.969 16.7243C113.895 17.3442 113.845 18.039 113.82 18.8076C113.795 19.5753 113.795 20.3121 113.82 21.0182C113.845 21.7243 113.863 22.3442 113.876 22.8778C113.888 23.4105 113.895 23.7512 113.895 23.9Z" fill="white"/>
<path d="M132.125 9.77282C132.325 9.52549 132.77 9.32075 133.459 9.15911C134.148 8.99798 134.961 8.88612 135.9 8.82454C136.839 8.76297 137.841 8.73218 138.906 8.73218C139.97 8.73218 140.991 8.75681 141.967 8.80607C142.945 8.85533 143.809 8.91793 144.56 8.99285C145.311 9.06674 145.837 9.14063 146.138 9.21453C146.488 9.31459 146.832 9.76153 147.169 10.5548C147.508 11.3471 147.827 12.3693 148.127 13.6213C148.429 14.8724 148.711 16.2845 148.974 17.8578C149.236 19.4316 149.468 21.049 149.669 22.71C149.869 24.37 150.025 26.012 150.137 27.6361C150.25 29.2592 150.326 30.7273 150.363 32.0409C150.402 33.3545 150.383 34.4516 150.307 35.3311C150.233 36.2111 150.095 36.7628 149.895 36.9855C149.769 37.1102 149.393 37.2154 148.766 37.3016C148.141 37.3878 147.446 37.4504 146.682 37.4883C145.918 37.5253 145.167 37.5376 144.427 37.5253C143.689 37.513 143.132 37.4817 142.757 37.4309C142.381 37.3816 142.074 37.1466 141.837 36.7248C141.599 36.3035 141.398 35.8206 141.235 35.2757C141.072 34.7297 140.947 34.2094 140.86 33.7137C140.772 33.2185 140.716 32.8717 140.692 32.6731C140.64 32.5243 140.496 32.3878 140.258 32.2646C140.02 32.1404 139.751 32.0717 139.451 32.0594C139.151 32.047 138.869 32.1035 138.605 32.2277C138.342 32.3508 138.174 32.5987 138.099 32.9707C138.023 33.3432 137.96 33.746 137.91 34.1796C137.86 34.6122 137.797 35.0207 137.721 35.405C137.647 35.7899 137.552 36.1311 137.439 36.4292C137.327 36.7263 137.158 36.9239 136.933 37.0224C136.633 37.1717 136.076 37.3026 135.261 37.4144C134.448 37.5253 133.591 37.5807 132.69 37.5807C131.788 37.5807 130.961 37.5063 130.209 37.357C129.458 37.2082 128.994 36.9603 128.819 36.614C128.594 36.0941 128.469 35.1402 128.444 33.7527C128.419 32.3642 128.469 30.7529 128.593 28.919C128.719 27.084 128.907 25.1443 129.157 23.1C129.407 21.0557 129.695 19.1232 130.02 17.3016C130.346 15.4789 130.691 13.8861 131.053 12.5232C131.417 11.1603 131.774 10.2439 132.125 9.77282ZM137.159 25.015C137.159 25.4615 137.397 25.7899 137.873 26.0002C138.348 26.2111 138.874 26.3102 139.449 26.2979C140.026 26.2855 140.558 26.1619 141.046 25.9264C141.536 25.6913 141.793 25.3506 141.818 24.9042C141.843 24.2597 141.849 23.6778 141.837 23.1575C141.824 22.6361 141.799 22.1158 141.762 21.5955C141.725 21.0741 141.667 20.523 141.592 19.9411C141.517 19.3582 141.442 18.6829 141.368 17.9153C141.316 17.4694 141.103 17.1348 140.727 16.9116C140.352 16.6873 139.945 16.5821 139.507 16.5955C139.069 16.6078 138.668 16.7197 138.304 16.93C137.942 17.1409 137.736 17.4442 137.686 17.8393C137.61 18.4592 137.541 19.154 137.479 19.9227C137.417 20.6903 137.359 21.4272 137.309 22.1332C137.259 22.8393 137.222 23.4592 137.197 23.9929C137.172 24.5255 137.159 24.8662 137.159 25.015Z" fill="white"/>
<path d="M171.094 9.62483C171.294 9.72335 171.482 10.0456 171.656 10.5916C171.831 11.1365 172.007 11.7933 172.183 12.562C172.358 13.3297 172.54 14.1538 172.728 15.0333C172.916 15.9133 173.129 16.7256 173.367 17.4697C173.604 18.2127 173.874 18.8382 174.174 19.3457C174.473 19.8537 174.812 20.1072 175.188 20.1072C175.388 20.1072 175.507 19.8722 175.545 19.4011C175.582 18.9306 175.576 18.3297 175.526 17.599C175.476 16.8672 175.407 16.0611 175.319 15.1811C175.232 14.3016 175.163 13.4651 175.113 12.6729C175.064 11.8796 175.057 11.1858 175.095 10.5916C175.132 9.99634 175.251 9.59969 175.451 9.4011C175.551 9.30156 175.801 9.21432 176.202 9.14043C176.603 9.06654 177.079 9.01728 177.629 8.99265C178.181 8.96802 178.769 8.96186 179.394 8.97418C180.021 8.98649 180.603 9.02344 181.141 9.08501C181.68 9.14659 182.137 9.23382 182.514 9.34569C182.89 9.45652 183.115 9.59918 183.19 9.77262C183.265 9.94657 183.321 10.4366 183.358 11.2422C183.396 12.0468 183.429 13.069 183.454 14.3087C183.478 15.5475 183.485 16.9288 183.472 18.4528C183.46 19.9774 183.44 21.5388 183.414 23.1367C183.389 24.7352 183.346 26.2966 183.283 27.8207C183.221 29.3452 183.139 30.7271 183.039 31.9668C182.939 33.2055 182.826 34.24 182.701 35.0702C182.576 35.901 182.438 36.4034 182.288 36.5768C182.062 36.8247 181.643 37.0171 181.029 37.1536C180.416 37.289 179.709 37.3886 178.907 37.4512C178.106 37.5128 177.254 37.5436 176.352 37.5436C175.45 37.5436 174.61 37.5005 173.834 37.4143C173.058 37.327 172.395 37.2152 171.845 37.0797C171.294 36.9432 170.968 36.7877 170.868 36.6138C170.768 36.4403 170.655 36.1058 170.529 35.6101C170.405 35.1149 170.273 34.551 170.135 33.9188C169.997 33.2866 169.852 32.6298 169.702 31.9483C169.553 31.2669 169.39 30.648 169.214 30.0908C169.039 29.5325 168.863 29.0804 168.688 28.734C168.513 28.3866 168.326 28.225 168.126 28.2496C167.925 28.2743 167.762 28.4913 167.636 28.9003C167.512 29.3082 167.392 29.8219 167.279 30.4418C167.167 31.0616 167.054 31.7379 166.941 32.4697C166.829 33.2004 166.71 33.888 166.584 34.5325C166.46 35.177 166.31 35.7348 166.134 36.2053C165.959 36.6764 165.745 36.9483 165.496 37.0222C165.245 37.0961 164.819 37.171 164.218 37.2459C163.617 37.3198 162.923 37.3691 162.133 37.3937C161.345 37.4184 160.525 37.4245 159.673 37.4122C158.821 37.3999 158.013 37.3506 157.249 37.2644C156.485 37.1772 155.815 37.053 155.239 36.8929C154.663 36.7318 154.275 36.527 154.075 36.2792C153.924 36.0811 153.792 35.5731 153.679 34.7562C153.567 33.9383 153.468 32.9151 153.38 31.6876C153.293 30.4602 153.224 29.0973 153.173 27.599C153.123 26.0996 153.092 24.5689 153.08 23.0074C153.067 21.4465 153.067 19.9158 153.08 18.4159C153.092 16.9165 153.123 15.5598 153.173 14.3457C153.224 13.1306 153.293 12.1269 153.38 11.3346C153.468 10.5413 153.574 10.0574 153.7 9.88345C153.85 9.66075 154.151 9.48731 154.602 9.36416C155.053 9.23998 155.566 9.15275 156.141 9.10349C156.718 9.05422 157.332 9.02959 157.983 9.02959C158.634 9.02959 159.247 9.06038 159.823 9.12196C160.399 9.18353 160.906 9.27077 161.345 9.38263C161.783 9.49347 162.077 9.61149 162.227 9.73567C162.377 9.85882 162.459 10.1934 162.471 10.7394C162.484 11.2843 162.452 11.9288 162.376 12.6729C162.301 13.4159 162.207 14.203 162.094 15.0333C161.982 15.8641 161.901 16.6322 161.851 17.3383C161.801 18.0444 161.795 18.6391 161.833 19.122C161.87 19.6053 162.001 19.8722 162.227 19.9225C162.427 19.9717 162.634 19.7675 162.847 19.3087C163.059 18.8505 163.266 18.2681 163.467 17.562C163.667 16.8549 163.874 16.0673 164.087 15.1995C164.3 14.3323 164.507 13.5144 164.707 12.7468C164.908 11.9781 165.108 11.3089 165.307 10.7394C165.507 10.1688 165.72 9.82188 165.946 9.69872C166.272 9.52528 166.666 9.37647 167.13 9.25332C167.593 9.12914 168.069 9.06038 168.557 9.04807C169.045 9.03575 169.514 9.07372 169.965 9.16096C170.416 9.24716 170.792 9.40213 171.094 9.62483Z" fill="white"/>
<path d="M205.781 15.758C205.456 15.9813 205.049 16.0988 204.562 16.1111C204.073 16.1234 203.56 16.0865 203.02 16.0002C202.482 15.913 201.925 15.8258 201.349 15.7396C200.773 15.6534 200.241 15.6411 199.752 15.7026C199.263 15.7642 198.831 15.9382 198.455 16.224C198.08 16.5088 197.805 16.9732 197.63 17.6177C197.429 18.336 197.529 18.9431 197.93 19.4383C198.331 19.934 198.883 20.3922 199.584 20.8135C200.285 21.2353 201.08 21.6812 201.969 22.1517C202.858 22.6228 203.69 23.1924 204.466 23.8615C205.243 24.5306 205.907 25.3552 206.457 26.3348C207.009 27.3134 207.31 28.5341 207.36 29.9966C207.409 31.6319 206.983 33.0508 206.082 34.2535C205.18 35.4553 203.884 36.3841 202.193 37.0409C200.503 37.6977 198.45 38.0508 196.033 38.1C193.617 38.1503 190.918 37.8537 187.937 37.2092C187.337 37.0604 186.886 36.6386 186.585 35.9448C186.285 35.2511 186.135 34.4829 186.135 33.6398C186.135 32.7973 186.278 31.9916 186.566 31.224C186.853 30.4553 187.273 29.9345 187.825 29.662C188.176 29.4886 188.59 29.4136 189.066 29.4383C189.541 29.4629 190.041 29.4947 190.567 29.5327C191.093 29.5696 191.63 29.5573 192.181 29.4957C192.733 29.4331 193.272 29.2156 193.799 28.843C194.148 28.5957 194.386 28.2986 194.51 27.9522C194.636 27.6048 194.68 27.2641 194.643 26.9301C194.606 26.595 194.493 26.285 194.305 26.0003C194.117 25.716 193.885 25.4989 193.61 25.3496C192.508 24.7297 191.537 24.1294 190.698 23.5475C189.86 22.9645 189.14 22.3755 188.539 21.7802C187.937 21.185 187.461 20.56 187.11 19.9042C186.76 19.2474 186.51 18.5223 186.361 17.7285C186.034 15.8951 186.185 14.3582 186.811 13.1185C187.437 11.8787 188.351 10.8935 189.553 10.1628C190.754 9.4321 192.138 8.94308 193.703 8.69523C195.268 8.4479 196.828 8.38632 198.381 8.5105C199.933 8.63366 201.38 8.9246 202.72 9.38284C204.06 9.84158 205.093 10.4296 205.821 11.148C206.346 11.694 206.621 12.4011 206.646 13.2683C206.671 14.1345 206.383 14.9647 205.781 15.758Z" fill="white"/>
</g>
<defs>
<clipPath id="clip0_71_402">
<rect width="208" height="39" rx="19.5" fill="white"/>
</clipPath>
</defs>
</svg>
